<?xml version="1.0" encoding="UTF-8" standalone="no"?>
<!-- Created with Inkscape (http://www.inkscape.org/) -->

<svg
   xmlns:dc="http://purl.org/dc/elements/1.1/"
   xmlns:cc="http://creativecommons.org/ns#"
   xmlns:rdf="http://www.w3.org/1999/02/22-rdf-syntax-ns#"
   xmlns:svg="http://www.w3.org/2000/svg"
   xmlns="http://www.w3.org/2000/svg"
   xmlns:sodipodi="http://sodipodi.sourceforge.net/DTD/sodipodi-0.dtd"
   xmlns:inkscape="http://www.inkscape.org/namespaces/inkscape"
   width="200.26553mm"
   height="177.49736mm"
   viewBox="0 0 709.60228 628.92765"
   id="svg2"
   version="1.1"
   inkscape:version="0.91 r13725"
   sodipodi:docname="Logo.svg">
  <defs
     id="defs4">
    <clipPath
       id="clipPath4152"
       clipPathUnits="userSpaceOnUse">
      <path
         inkscape:connector-curvature="0"
         id="path4154"
         d="m 0,957.061 1845,0 L 1845,0 0,0 0,957.061 Z" />
    </clipPath>
  </defs>
  <sodipodi:namedview
     id="base"
     pagecolor="#2c2d2b"
     bordercolor="#666666"
     borderopacity="1.0"
     inkscape:pageopacity="1"
     inkscape:pageshadow="2"
     inkscape:zoom="0.49497475"
     inkscape:cx="35.491652"
     inkscape:cy="55.465188"
     inkscape:document-units="px"
     inkscape:current-layer="g4144"
     showgrid="false"
     inkscape:window-width="1920"
     inkscape:window-height="1031"
     inkscape:window-x="0"
     inkscape:window-y="39"
     inkscape:window-maximized="1"
     fit-margin-top="0"
     fit-margin-left="0"
     fit-margin-right="0"
     fit-margin-bottom="0" />
  <metadata
     id="metadata7">
    <rdf:RDF>
      <cc:Work
         rdf:about="">
        <dc:format>image/svg+xml</dc:format>
        <dc:type
           rdf:resource="http://purl.org/dc/dcmitype/StillImage" />
        <dc:title></dc:title>
      </cc:Work>
    </rdf:RDF>
  </metadata>
  <g
     inkscape:label="Calque 1"
     inkscape:groupmode="layer"
     id="layer1"
     transform="translate(3.02451e-5,-423.43454)">
    <g
       transform="matrix(1.25,0,0,-1.25,-873.125,1044.811)"
       inkscape:label="Adventurz - Logo final"
       id="g4144">
      <g
         id="g4148"
         transform="translate(58.62936,-256.53193)">
        <g
           clip-path="url(#clipPath4152)"
           id="g4150">
          <g
             transform="translate(1016.0927,585.1001)"
             id="g4156">
            <path
               inkscape:connector-curvature="0"
               id="path4158"
               style="fill:#fdf330;fill-opacity:1;fill-rule:nonzero;stroke:none"
               d="m 0,0 c -9.847,14.116 -16.475,30.782 -18.671,49.063 -1.175,9.786 -1.001,19.422 0.361,28.727 -6.711,-8.942 -12.048,-18.923 -15.755,-29.6 -14.74,27.906 -24.711,58.933 -28.7,92.138 -1.137,9.468 -1.756,18.878 -1.887,28.205 -13.925,-28.01 -22.995,-58.68 -26.25,-90.784 -5.589,11.143 -11.925,21.814 -18.946,31.946 4.053,-37.431 -11.482,-72.567 -38.467,-95.064 -29.134,-22.596 -46.023,-59.477 -41.305,-98.747 7.147,-59.493 61.169,-101.928 120.663,-94.781 59.493,7.147 101.928,61.17 94.781,120.663 C 23.131,-35.821 13.784,-15.832 0,0" />
          </g>
          <g
             transform="translate(962.8598,595.1436)"
             id="g4160">
            <path
               inkscape:connector-curvature="0"
               id="path4162"
               style="fill:#7f847b;fill-opacity:1;fill-rule:nonzero;stroke:none"
               d="m 0,0 c -5.63,5.65 -14.1,6.338 -18.918,1.537 l -164.081,-148.473 33.053,-33.166 L 1.472,-18.923 C 6.289,-14.122 5.63,-5.65 0,0" />
          </g>
          <g
             transform="translate(808.9252,443.7164)"
             id="g4164">
            <path
               inkscape:connector-curvature="0"
               id="path4166"
               style="fill:#5d605a;fill-opacity:1;fill-rule:nonzero;stroke:none"
               d="m 0,0 c 9.238,-9.27 11.205,-22.289 4.392,-29.079 -6.814,-6.79 -19.826,-4.779 -29.064,4.491 -9.239,9.27 -11.205,22.29 -4.392,29.079 C -22.251,11.281 -9.239,9.27 0,0" />
          </g>
          <g
             transform="translate(940.2176,602.2886)"
             id="g4168">
            <path
               inkscape:connector-curvature="0"
               id="path4170"
               style="fill:#929c8b;fill-opacity:1;fill-rule:nonzero;stroke:none"
               d="M 0,0 C -0.064,0.143 -0.126,0.285 -0.195,0.427 -3.469,7.111 -11.873,9.713 -18.967,6.239 -26.06,2.764 -29.156,-5.471 -25.882,-12.155 L 77.78,-246.71 126.943,-221.32 0,0 Z" />
          </g>
          <g
             transform="translate(1033.4349,386.7147)"
             id="g4172">
            <path
               inkscape:connector-curvature="0"
               id="path4174"
               style="fill:#666b62;fill-opacity:1;fill-rule:nonzero;stroke:none"
               d="M 0,0 C 13.742,7.097 29.109,4.662 34.325,-5.437 39.54,-15.536 32.629,-29.476 18.887,-36.572 5.146,-43.669 -10.222,-41.235 -15.438,-31.136 -20.653,-21.036 -13.742,-7.097 0,0" />
          </g>
          <g
             transform="translate(812.6439,522.5091)"
             id="g4176">
            <path
               inkscape:connector-curvature="0"
               id="path4178"
               style="fill:#e08a65;fill-opacity:1;fill-rule:nonzero;stroke:none"
               d="m 0,0 c -0.486,0.153 -0.986,0.277 -1.501,0.36 -6.715,1.084 -13.188,-4.421 -14.459,-12.295 -1.27,-7.868 3.135,-15.124 9.84,-16.217 l -0.026,-0.157 263.512,-53.324 7.461,46.225 L 0,0 Z" />
          </g>
          <g
             transform="translate(1056.5923,467.0455)"
             id="g4180">
            <path
               inkscape:connector-curvature="0"
               id="path4182"
               style="fill:#af6951;fill-opacity:1;fill-rule:nonzero;stroke:none"
               d="M 0,0 C 2.085,12.92 11.474,22.152 20.969,20.62 30.465,19.087 36.473,7.371 34.387,-5.55 32.302,-18.47 22.914,-27.702 13.418,-26.169 3.922,-24.637 -2.085,-12.92 0,0" />
          </g>
        </g>
      </g>
      <text
         id="text4184"
         style="font-variant:normal;font-weight:bold;font-stretch:normal;font-size:82.34870148px;font-family:Aventura;-inkscape-font-specification:Aventura-Bold;writing-mode:lr-tb;fill:#878e82;fill-opacity:1;fill-rule:nonzero;stroke:none"
         transform="scale(1,-1)"
         x="696.14716"
         y="1.9235287">
        <tspan
           id="tspan4186"
           sodipodi:role="line"
           x="696.14716"
           y="1.9235287">AD</tspan>
      </text>
      <text
         id="text4188"
         style="font-variant:normal;font-weight:bold;font-stretch:normal;font-size:85.70690155px;font-family:Aventura;-inkscape-font-specification:Aventura-Bold;writing-mode:lr-tb;fill:#878e82;fill-opacity:1;fill-rule:nonzero;stroke:none"
         transform="scale(1,-1)"
         x="820.12781"
         y="3.5235286">
        <tspan
           id="tspan4190"
           y="3.5235286"
           x="820.12781">V</tspan>
      </text>
      <text
         id="text4192"
         style="font-variant:normal;font-weight:bold;font-stretch:normal;font-size:82.34870148px;font-family:Aventura;-inkscape-font-specification:Aventura-Bold;writing-mode:lr-tb;fill:#878e82;fill-opacity:1;fill-rule:nonzero;stroke:none"
         transform="scale(1,-1)"
         x="886.8559"
         y="1.9235287">
        <tspan
           id="tspan4194"
           sodipodi:role="line"
           y="1.9235287"
           x="886.8559 948.5351 1011.8201 1071.1935">ENTU</tspan>
      </text>
      <text
         id="text4196"
         style="font-variant:normal;font-weight:bold;font-stretch:normal;font-size:85.94480133px;font-family:Aventura;-inkscape-font-specification:Aventura-Bold;writing-mode:lr-tb;fill:#878e82;fill-opacity:1;fill-rule:nonzero;stroke:none"
         transform="scale(1,-1)"
         x="1136.3701"
         y="1.9235287">
        <tspan
           id="tspan4198"
           y="1.9235287"
           x="1136.3701">R</tspan>
      </text>
      <text
         id="text4200"
         style="font-variant:normal;font-weight:bold;font-stretch:normal;font-size:83.93389893px;font-family:Aventura;-inkscape-font-specification:Aventura-Bold;writing-mode:lr-tb;fill:#878e82;fill-opacity:1;fill-rule:nonzero;stroke:none"
         transform="scale(1,-1)"
         x="1201.193"
         y="1.9235287">
        <tspan
           id="tspan4202"
           y="1.9235287"
           x="1201.193">Z</tspan>
      </text>
    </g>
  </g>
</svg>
