<?xml version="1.0" encoding="UTF-8" standalone="no"?>
<!-- Created with Inkscape (http://www.inkscape.org/) -->

<svg
   xmlns:dc="http://purl.org/dc/elements/1.1/"
   xmlns:cc="http://creativecommons.org/ns#"
   xmlns:rdf="http://www.w3.org/1999/02/22-rdf-syntax-ns#"
   xmlns:svg="http://www.w3.org/2000/svg"
   xmlns="http://www.w3.org/2000/svg"
   xmlns:sodipodi="http://sodipodi.sourceforge.net/DTD/sodipodi-0.dtd"
   xmlns:inkscape="http://www.inkscape.org/namespaces/inkscape"
   width="200.26553mm"
   height="177.49736mm"
   viewBox="0 0 709.60228 628.92765"
   id="svg2"
   version="1.1"
   inkscape:version="0.91 r13725"
   sodipodi:docname="Logo_chemin.svg">
  <defs
     id="defs4">
    <clipPath
       id="clipPath4152"
       clipPathUnits="userSpaceOnUse">
      <path
         inkscape:connector-curvature="0"
         id="path4154"
         d="m 0,957.061 1845,0 L 1845,0 0,0 0,957.061 Z" />
    </clipPath>
  </defs>
  <sodipodi:namedview
     id="base"
     pagecolor="#2c2d2b"
     bordercolor="#666666"
     borderopacity="1.0"
     inkscape:pageopacity="1"
     inkscape:pageshadow="2"
     inkscape:zoom="0.49497475"
     inkscape:cx="35.491652"
     inkscape:cy="-106.15922"
     inkscape:document-units="px"
     inkscape:current-layer="g4144"
     showgrid="false"
     inkscape:window-width="1920"
     inkscape:window-height="1031"
     inkscape:window-x="0"
     inkscape:window-y="39"
     inkscape:window-maximized="1"
     fit-margin-top="0"
     fit-margin-left="0"
     fit-margin-right="0"
     fit-margin-bottom="0" />
  <metadata
     id="metadata7">
    <rdf:RDF>
      <cc:Work
         rdf:about="">
        <dc:format>image/svg+xml</dc:format>
        <dc:type
           rdf:resource="http://purl.org/dc/dcmitype/StillImage" />
        <dc:title></dc:title>
      </cc:Work>
    </rdf:RDF>
  </metadata>
  <g
     inkscape:label="Calque 1"
     inkscape:groupmode="layer"
     id="layer1"
     transform="translate(3.02451e-5,-423.43454)">
    <g
       transform="matrix(1.25,0,0,-1.25,-873.125,1044.811)"
       inkscape:label="Adventurz - Logo final"
       id="g4144">
      <g
         id="g4148"
         transform="translate(58.62936,-256.53193)">
        <g
           clip-path="url(#clipPath4152)"
           id="g4150">
          <g
             transform="translate(1016.0927,585.1001)"
             id="g4156">
            <path
               inkscape:connector-curvature="0"
               id="path4158"
               style="fill:#fdf330;fill-opacity:1;fill-rule:nonzero;stroke:none"
               d="m 0,0 c -9.847,14.116 -16.475,30.782 -18.671,49.063 -1.175,9.786 -1.001,19.422 0.361,28.727 -6.711,-8.942 -12.048,-18.923 -15.755,-29.6 -14.74,27.906 -24.711,58.933 -28.7,92.138 -1.137,9.468 -1.756,18.878 -1.887,28.205 -13.925,-28.01 -22.995,-58.68 -26.25,-90.784 -5.589,11.143 -11.925,21.814 -18.946,31.946 4.053,-37.431 -11.482,-72.567 -38.467,-95.064 -29.134,-22.596 -46.023,-59.477 -41.305,-98.747 7.147,-59.493 61.169,-101.928 120.663,-94.781 59.493,7.147 101.928,61.17 94.781,120.663 C 23.131,-35.821 13.784,-15.832 0,0" />
          </g>
          <g
             transform="translate(962.8598,595.1436)"
             id="g4160">
            <path
               inkscape:connector-curvature="0"
               id="path4162"
               style="fill:#7f847b;fill-opacity:1;fill-rule:nonzero;stroke:none"
               d="m 0,0 c -5.63,5.65 -14.1,6.338 -18.918,1.537 l -164.081,-148.473 33.053,-33.166 L 1.472,-18.923 C 6.289,-14.122 5.63,-5.65 0,0" />
          </g>
          <g
             transform="translate(808.9252,443.7164)"
             id="g4164">
            <path
               inkscape:connector-curvature="0"
               id="path4166"
               style="fill:#5d605a;fill-opacity:1;fill-rule:nonzero;stroke:none"
               d="m 0,0 c 9.238,-9.27 11.205,-22.289 4.392,-29.079 -6.814,-6.79 -19.826,-4.779 -29.064,4.491 -9.239,9.27 -11.205,22.29 -4.392,29.079 C -22.251,11.281 -9.239,9.27 0,0" />
          </g>
          <g
             transform="translate(940.2176,602.2886)"
             id="g4168">
            <path
               inkscape:connector-curvature="0"
               id="path4170"
               style="fill:#929c8b;fill-opacity:1;fill-rule:nonzero;stroke:none"
               d="M 0,0 C -0.064,0.143 -0.126,0.285 -0.195,0.427 -3.469,7.111 -11.873,9.713 -18.967,6.239 -26.06,2.764 -29.156,-5.471 -25.882,-12.155 L 77.78,-246.71 126.943,-221.32 0,0 Z" />
          </g>
          <g
             transform="translate(1033.4349,386.7147)"
             id="g4172">
            <path
               inkscape:connector-curvature="0"
               id="path4174"
               style="fill:#666b62;fill-opacity:1;fill-rule:nonzero;stroke:none"
               d="M 0,0 C 13.742,7.097 29.109,4.662 34.325,-5.437 39.54,-15.536 32.629,-29.476 18.887,-36.572 5.146,-43.669 -10.222,-41.235 -15.438,-31.136 -20.653,-21.036 -13.742,-7.097 0,0" />
          </g>
          <g
             transform="translate(812.6439,522.5091)"
             id="g4176">
            <path
               inkscape:connector-curvature="0"
               id="path4178"
               style="fill:#e08a65;fill-opacity:1;fill-rule:nonzero;stroke:none"
               d="m 0,0 c -0.486,0.153 -0.986,0.277 -1.501,0.36 -6.715,1.084 -13.188,-4.421 -14.459,-12.295 -1.27,-7.868 3.135,-15.124 9.84,-16.217 l -0.026,-0.157 263.512,-53.324 7.461,46.225 L 0,0 Z" />
          </g>
          <g
             transform="translate(1056.5923,467.0455)"
             id="g4180">
            <path
               inkscape:connector-curvature="0"
               id="path4182"
               style="fill:#af6951;fill-opacity:1;fill-rule:nonzero;stroke:none"
               d="M 0,0 C 2.085,12.92 11.474,22.152 20.969,20.62 30.465,19.087 36.473,7.371 34.387,-5.55 32.302,-18.47 22.914,-27.702 13.418,-26.169 3.922,-24.637 -2.085,-12.92 0,0" />
          </g>
        </g>
      </g>
      <g
         transform="scale(1,-1)"
         style="font-variant:normal;font-weight:bold;font-stretch:normal;font-size:82.34870148px;font-family:Aventura;-inkscape-font-specification:Aventura-Bold;writing-mode:lr-tb;fill:#878e82;fill-opacity:1;fill-rule:nonzero;stroke:none"
         id="text4184">
        <path
           d="m 709.32295,1.8058877 5.99969,-14.3522027 22.58707,0 5.64677,14.1169207 11.05825,-4.3527171 -4.11743,-10.4700496 0,-11.293536 -4.47036,0 -14.11692,-35.762864 -9.88184,0 -14.70513,35.762864 -4.82328,0 0,11.293536 -3.99979,9.8818446 10.82297,5.1762041 z m 23.76348,-26.3515847 -12.94051,0 6.5879,-15.999176 6.35261,15.999176 z"
           style=""
           id="path4191" />
        <path
           d="m 760.35525,-49.015025 2.70574,-0.117641 0,38.82153 -2.70574,0 -1.05877,12.3523057 3.52923,0.117641 0.5882,0 c 1.29405,0 5.05857,0.117641 9.88185,0.117641 6.58789,0 12.46994,-0.117641 17.52851,-0.823487 7.1761,-0.82348705 13.76399,-3.7645121 18.23435,-7.9995882 2.23518,-1.999897 4.82328,-5.0585635 6.47026,-9.5289215 1.41169,-3.646871 1.88225,-7.764306 1.88225,-13.763997 0,-5.764409 -0.47056,-9.999485 -1.88225,-13.528715 -1.64698,-4.587999 -4.23508,-7.529024 -6.47026,-9.646562 -4.47036,-4.235076 -11.05825,-7.05846 -18.23435,-7.999588 -5.05857,-0.470564 -10.82298,-0.823487 -17.17559,-0.823487 -5.05856,0 -8.94072,0.235282 -10.47005,0.235282 l -0.35292,0 -3.52923,0 1.05877,12.587587 z m 42.4684,9.764203 c 0.82348,1.882256 1.05877,4.70564 1.05877,8.587793 l 0,1.999897 c 0,3.764512 -0.23529,6.470255 -1.05877,8.470152 -0.70585,1.999897 -1.76462,3.411589 -3.52923,5.058563 -2.23518,2.35282 -6.11733,3.882153 -10.11713,4.352717 -3.76451,0.352923 -8.23487,0.588205 -12.94051,0.705846 l 0,-39.409735 c 4.70564,0.117641 9.176,0.470564 12.94051,0.941128 3.9998,0.235282 7.88195,1.999897 10.11713,4.235076 1.76461,1.646974 2.82338,3.058666 3.52923,4.940922 l 0,0.117641 z"
           style=""
           id="path4193" />
      </g>
      <g
         transform="scale(1,-1)"
         style="font-variant:normal;font-weight:bold;font-stretch:normal;font-size:85.70690155px;font-family:Aventura;-inkscape-font-specification:Aventura-Bold;writing-mode:lr-tb;fill:#878e82;fill-opacity:1;fill-rule:nonzero;stroke:none"
         id="text4188">
        <path
           d="m 869.34806,-61.736155 -17.38626,37.343721 -18.61064,-37.466159 -10.77458,4.775098 29.75253,59.9948314 27.79353,-60.2397084 -10.77458,-4.407783 z"
           style=""
           id="path4188" />
      </g>
      <g
         transform="scale(1,-1)"
         style="font-variant:normal;font-weight:bold;font-stretch:normal;font-size:82.34870148px;font-family:Aventura;-inkscape-font-specification:Aventura-Bold;writing-mode:lr-tb;fill:#878e82;fill-opacity:1;fill-rule:nonzero;stroke:none"
         id="text4192">
        <path
           d="m 891.20861,-11.722828 -1.76461,0 -0.23528,13.0581517 52.46788,0.823487 0.35293,-13.1757927 -37.64512,-0.705846 0,-10.822972 23.41055,0 0,-13.175792 -23.41055,0 0,-11.528818 37.64512,-0.705846 -0.35293,-13.175792 -52.46788,0.941128 0.23528,13.293433 1.76461,-0.117641 0,35.2923 z"
           style=""
           id="path4179" />
        <path
           d="m 963.00494,2.0411697 1.17641,-35.7628647 41.17435,39.7626587 -0.4706,-66.1142427 -12.11699,0.117641 0.11764,37.056915 -39.99794,-39.99794 -1.99989,64.9378327 12.11702,0 z"
           style=""
           id="path4181" />
        <path
           d="m 1032.7602,1.9235287 13.0582,0.235282 0.2353,-50.1150667 18.7049,0 0,-13.175792 -50.5857,0 0,13.175792 18.705,0 -0.1177,49.8797847 z"
           style=""
           id="path4183" />
        <path
           d="m 1108.6033,1.5706057 c 5.6468,0 10.9406,-2.23517908 15.0581,-6.2349731 3.9998,-3.9997941 6.2349,-9.4112806 6.2349,-15.1756896 l 0,-40.939068 -12.8228,0 0,40.939068 c 0,4.823281 -3.8822,8.470152 -8.4702,8.470152 l -13.6463,0 c -4.7057,0 -8.4702,-3.646871 -8.4702,-8.470152 l 0,-40.939068 -12.9405,0 0,40.939068 c 0,5.764409 2.2352,11.1758955 6.235,15.1756896 4.1174,3.99979402 9.4113,6.2349731 15.1757,6.2349731 l 13.6463,0 z"
           style=""
           id="path4185" />
      </g>
      <g
         transform="scale(1,-1)"
         style="font-variant:normal;font-weight:bold;font-stretch:normal;font-size:85.94480133px;font-family:Aventura;-inkscape-font-specification:Aventura-Bold;writing-mode:lr-tb;fill:#878e82;fill-opacity:1;fill-rule:nonzero;stroke:none"
         id="text4196">
        <path
           d="m 1188.9192,-26.561034 c 1.9645,-2.332788 3.315,-5.03391 3.8062,-8.59448 0.4911,-3.069457 0.4911,-6.261693 0.2455,-10.436155 -0.2455,-2.8239 -0.8594,-5.279466 -2.0872,-7.243919 -1.2278,-2.210009 -2.9467,-4.051683 -5.4023,-5.525023 -3.6833,-1.964452 -8.4717,-2.946678 -15.5928,-2.946678 l -0.2456,0 c -5.2794,0 -9.4539,0 -12.8917,0 l -4.1744,0 c -3.8062,-0.122779 -7.1212,-0.122779 -10.559,0 l -3.1922,0 0.2455,12.89172 2.5784,0 -0.1228,49.9707628 13.0145,0 0,-22.1000918 1.4733,0 c 1.4734,0 2.7012,0 4.0517,0 l 3.9289,0 c 1.8417,0 3.9289,0 6.0162,-0.122778 l 14.7334,23.573431 11.2956,-6.8755841 -11.7868,-19.1534129 c 1.8417,-0.859448 3.3151,-2.087231 4.6656,-3.437792 z m -32.7818,-6.875584 -1.5961,0 0,-14.978951 2.0872,0 c 3.5606,0.122778 7.8578,0.122778 13.1373,0 5.7706,0 8.2262,0.613891 9.3312,1.350561 0.4911,0.245556 0.8594,0.73667 0.9822,2.210009 l 0,0.245557 c 0.6139,7.12114 -0.3683,8.962815 -0.7367,9.453928 l -0.2455,0.122778 c -0.3684,0.491113 -2.21,1.227783 -8.8401,1.596118 l -14.1195,0 z"
           style=""
           id="path4176" />
      </g>
      <g
         transform="scale(1,-1)"
         style="font-variant:normal;font-weight:bold;font-stretch:normal;font-size:83.93389893px;font-family:Aventura;-inkscape-font-specification:Aventura-Bold;writing-mode:lr-tb;fill:#878e82;fill-opacity:1;fill-rule:nonzero;stroke:none"
         id="text4200">
        <path
           d="m 1266.1818,-60.90699 -58.2741,0 0,13.069707 32.2546,0 -36.5712,49.8807172 59.713,0 0,-13.3095182 -33.6935,0 36.5712,-49.640906 z"
           style=""
           id="path4173" />
      </g>
    </g>
  </g>
</svg>
